<?xml version="1.0" standalone="no"?>
<!DOCTYPE svg PUBLIC "-//W3C//DTD SVG 20010904//EN"
 "http://www.w3.org/TR/2001/REC-SVG-20010904/DTD/svg10.dtd">
<svg version="1.0" xmlns="http://www.w3.org/2000/svg"
 width="2131.000000pt" height="2400.000000pt" viewBox="0 0 2131.000000 2400.000000"
 preserveAspectRatio="xMidYMid meet">
<metadata>
Created by potrace 1.16, written by Peter Selinger 2001-2019
</metadata>
<g transform="translate(0.000000,2400.000000) scale(0.100000,-0.100000)"
fill="#000000" stroke="none">
<path d="M13150 23981 c0 -5 11 -22 24 -38 53 -64 160 -239 216 -354 209 -435
256 -912 135 -1384 -265 -1034 -1301 -1682 -2353 -1470 -312 63 -617 207 -868
411 -166 134 -348 340 -442 501 -21 35 -40 63 -44 63 -8 0 -52 -191 -72 -315
-41 -244 -49 -604 -21 -851 69 -599 293 -1138 667 -1606 107 -133 335 -362
468 -469 172 -138 367 -261 573 -363 275 -136 491 -211 767 -266 235 -47 331
-55 635 -54 301 0 436 14 677 70 818 187 1533 704 1967 1423 930 1536 368
3547 -1221 4370 -325 169 -651 275 -983 321 -44 6 -90 13 -102 16 -13 2 -23 0
-23 -5z"/>
<path d="M7740 18369 c-1910 -126 -3420 -1042 -4196 -2544 -311 -603 -491
-1242 -570 -2025 -16 -160 -32 -780 -20 -780 4 0 32 13 64 29 105 52 238 87
357 93 l60 3 32 -60 c77 -145 97 -342 51 -500 -35 -118 -89 -208 -178 -297
-150 -148 -361 -219 -565 -188 -96 14 -217 59 -276 102 l-42 30 7 -103 c12
-190 77 -379 180 -523 96 -133 257 -263 407 -327 228 -97 496 -104 732 -19
165 60 349 200 453 346 62 87 129 234 156 340 33 134 31 341 -6 479 -92 349
-370 622 -717 703 l-67 16 4 140 c19 622 102 1128 264 1615 158 477 372 875
681 1270 114 145 456 485 604 599 717 557 1583 868 2617 942 184 13 657 13
843 0 282 -19 553 -53 837 -105 l186 -34 81 24 c464 139 1001 133 1596 -16
118 -29 378 -114 484 -158 l54 -22 -15 23 c-8 13 -30 49 -48 80 -24 41 -44 61
-69 71 -20 8 -121 51 -225 96 -922 398 -1908 639 -2871 701 -184 12 -701 11
-885 -1z"/>
<path d="M20332 17183 c90 -175 112 -261 105 -408 -12 -280 -189 -516 -455
-608 -176 -60 -364 -45 -535 43 -43 22 -81 40 -84 40 -13 0 7 -209 27 -285 35
-138 121 -299 217 -405 l44 -50 -57 -97 c-502 -858 -1168 -1391 -1959 -1567
-221 -50 -331 -60 -615 -60 -289 0 -403 11 -670 65 -945 189 -1976 765 -2902
1622 -108 100 -129 124 -138 160 -6 23 -29 101 -51 172 -149 477 -398 878
-726 1170 -85 76 -192 158 -179 137 5 -8 -5338 -6994 -5353 -7000 -5 -2 -6
-24 -4 -50 106 -1149 490 -1921 1183 -2381 125 -82 331 -190 454 -238 42 -16
77 -33 77 -37 1 -10 -248 -335 -465 -606 -1570 -1966 -3060 -3228 -4471 -3785
-475 -187 -926 -292 -1392 -324 l-141 -10 -79 78 c-130 130 -262 182 -457 182
-104 0 -168 -9 -270 -38 l-58 -16 6 -36 c49 -281 8 -588 -110 -824 -177 -353
-484 -554 -814 -534 -105 7 -188 26 -262 62 -26 13 -46 19 -42 14 3 -5 1 -9
-4 -9 -11 0 -73 -182 -102 -298 -51 -204 -66 -480 -35 -655 55 -313 234 -527
495 -593 99 -25 306 -15 425 20 262 78 504 235 746 483 58 59 134 144 169 188
269 340 474 799 519 1165 7 52 14 109 17 127 l5 31 87 7 c1545 120 3127 996
4772 2645 589 590 1195 1285 1760 2020 156 203 121 179 395 269 1235 407 2393
651 3810 806 127 13 464 47 750 75 286 27 548 52 583 56 l62 7 0 -184 c0 -217
-13 -616 -40 -1229 -41 -927 -44 -1062 -44 -1705 -1 -763 15 -1090 74 -1550
15 -114 18 -179 14 -270 -8 -141 3 -208 51 -310 156 -338 613 -545 1203 -545
895 0 1763 477 1923 1057 45 162 20 358 -62 488 -191 304 -627 485 -1166 485
-115 0 -115 0 -108 -22 38 -119 46 -167 41 -238 -13 -179 -109 -338 -286 -469
-163 -122 -378 -207 -640 -253 -100 -17 -470 -17 -570 0 -83 15 -268 61 -288
71 -9 5 4 33 49 102 76 116 239 280 362 364 l88 60 -5 65 c-20 249 -28 659
-23 1160 6 519 15 816 52 1620 29 633 39 1169 27 1395 -11 207 -58 642 -72
658 -4 4 -114 -10 -246 -32 -306 -52 -452 -69 -1099 -131 -829 -79 -1239 -128
-1742 -206 -123 -19 -225 -34 -227 -34 -3 0 32 48 77 108 583 773 1018 1970
1277 3512 53 318 123 808 154 1090 56 496 76 837 76 1281 0 181 2 329 5 329 3
0 47 -33 98 -73 283 -226 682 -493 997 -669 699 -390 1343 -610 2040 -694 199
-25 649 -25 840 -1 934 118 1694 560 2328 1352 119 150 327 458 422 627 l65
116 135 5 c96 3 157 11 209 27 331 95 587 353 683 686 20 69 23 101 23 254 0
140 -4 189 -19 245 -100 370 -383 640 -751 716 -90 19 -210 26 -203 12z"/>
</g>
</svg>
