<?xml version="1.0" standalone="no"?>
<!DOCTYPE svg PUBLIC "-//W3C//DTD SVG 20010904//EN"
 "http://www.w3.org/TR/2001/REC-SVG-20010904/DTD/svg10.dtd">
<svg version="1.0" xmlns="http://www.w3.org/2000/svg"
 width="312.000000pt" height="593.000000pt" viewBox="0 0 312.000000 593.000000"
 preserveAspectRatio="xMidYMid meet">
<metadata>
Created by potrace 1.16, written by Peter Selinger 2001-2019
</metadata>
<g transform="translate(0.000000,593.000000) scale(0.100000,-0.100000)"
fill="#000000" stroke="none">
<path d="M1710 5926 c0 -3 14 -27 30 -53 67 -105 90 -273 54 -394 -46 -157
-176 -287 -333 -333 -77 -22 -204 -21 -283 4 -106 33 -201 102 -261 193 l-25
38 -12 -58 c-27 -127 -11 -299 40 -436 57 -153 206 -313 363 -391 120 -59 204
-79 342 -79 138 0 222 20 340 78 345 172 505 570 376 934 -39 113 -85 184
-176 277 -91 93 -189 155 -297 189 -78 24 -158 40 -158 31z"/>
<path d="M1506 3294 l-588 -817 5 -41 c19 -135 108 -353 189 -461 46 -62 128
-137 186 -171 17 -10 32 -21 32 -24 0 -3 -19 -17 -43 -32 -106 -68 -230 -225
-302 -383 -93 -203 -171 -498 -205 -765 -18 -142 -15 -136 -58 -132 l-37 4 3
-44 c4 -55 -22 -98 -80 -132 -89 -52 -222 -69 -326 -42 -30 7 -55 9 -58 4 -11
-18 8 -88 34 -121 34 -44 75 -72 154 -105 58 -25 74 -27 203 -27 120 0 149 3
207 23 159 55 234 172 179 280 -10 20 -31 48 -45 61 -31 29 -32 46 -11 197 46
338 139 644 252 834 53 90 150 191 215 222 75 37 128 42 223 23 380 -79 643
-428 710 -941 l7 -51 60 18 c33 11 68 19 79 19 25 0 25 29 -2 166 -76 393
-268 693 -549 855 -74 43 -74 43 -45 52 55 19 150 81 197 130 98 100 159 218
208 400 45 173 61 312 67 617 6 284 -4 476 -33 644 -8 48 -13 90 -11 92 5 6
84 -53 161 -120 221 -193 334 -450 368 -836 8 -93 15 -130 24 -130 19 0 38
-72 30 -113 -9 -49 -45 -99 -86 -119 -43 -22 -111 -23 -150 -3 -29 15 -30 15
-30 -8 0 -36 27 -106 55 -143 37 -48 117 -84 187 -84 70 0 121 19 167 63 94
89 97 248 6 347 -19 21 -24 40 -30 130 -38 600 -222 924 -687 1215 -86 54
-105 71 -132 118 -33 57 -97 146 -106 147 -3 0 -271 -367 -594 -816z"/>
<path d="M855 3663 c-342 -284 -547 -610 -639 -1015 -5 -21 -3 -28 9 -28 39 0
48 -118 12 -171 -39 -58 -83 -81 -147 -77 -30 2 -63 8 -73 12 -14 7 -17 3 -17
-25 1 -76 67 -165 147 -195 31 -12 62 -15 112 -12 59 4 77 10 117 40 67 47 99
112 99 198 -1 72 -18 115 -68 168 l-32 33 22 84 c68 264 213 513 419 720 80
81 86 90 95 143 10 61 28 146 36 175 7 28 -8 20 -92 -50z"/>
<path d="M2657 659 c7 -63 -24 -105 -111 -149 -65 -33 -74 -35 -170 -35 -56 0
-120 4 -143 8 -43 9 -43 8 -43 -20 1 -48 35 -108 85 -146 160 -123 470 -123
630 0 50 38 85 98 85 148 0 106 -130 210 -288 231 l-50 6 5 -43z"/>
</g>
</svg>
